<svg width="374" height="349" viewBox="0 0 374 349" fill="none" xmlns="http://www.w3.org/2000/svg">
<path d="M299.462 292.371C292.639 299.556 286.183 304.188 281.082 307.849C221.121 350.876 150.171 338.334 135.092 335.272C112.826 330.749 69.7849 322.006 38.6667 285.409C-8.41282 230.039 -1.08171 142.807 35.4361 85.2236C42.1153 74.6903 77.3999 16.2308 149.113 6.85524C192.514 1.18089 243.105 12.6246 279.742 43.3217C356.645 107.758 351.17 237.93 299.462 292.371Z" fill="#DDEDFA"/>
<g opacity="0.3">
<path d="M108.431 75.7714C109.126 75.5618 109.88 75.9067 110.167 76.5904C110.795 78.0858 111.368 79.6299 111.869 81.1801C112.112 81.9345 111.698 82.7437 110.944 82.9875C110.935 82.9899 110.925 82.9923 110.917 82.996C110.17 83.2214 109.378 82.8083 109.137 82.0637C108.661 80.5902 108.117 79.1229 107.521 77.7031C107.214 76.9719 107.557 76.1309 108.288 75.8238C108.336 75.8043 108.383 75.7873 108.431 75.7726V75.7714ZM111.958 87.7685C112.011 87.7526 112.067 87.7392 112.123 87.7295C112.903 87.5905 113.649 88.1109 113.788 88.8921C114.072 90.496 114.291 92.1266 114.437 93.7402C114.509 94.5299 113.931 95.2258 113.138 95.3001C112.349 95.3721 111.651 94.7895 111.58 94.001C111.441 92.4666 111.233 90.9176 110.962 89.393C110.834 88.6691 111.272 87.9769 111.959 87.7685H111.958ZM112.756 100.244C112.909 100.198 113.073 100.177 113.241 100.185C114.033 100.224 114.643 100.897 114.604 101.689C114.525 103.312 114.374 104.951 114.156 106.562C114.049 107.348 113.326 107.897 112.541 107.792C111.757 107.686 111.206 106.962 111.312 106.177C111.519 104.648 111.663 103.09 111.738 101.549C111.769 100.926 112.192 100.415 112.757 100.244H112.756ZM110.744 112.588C110.996 112.511 111.274 112.504 111.547 112.58C112.31 112.795 112.755 113.588 112.54 114.351C112.099 115.916 111.586 117.481 111.013 119.003C110.734 119.744 109.907 120.119 109.165 119.841C108.422 119.562 108.048 118.735 108.326 117.993C108.87 116.548 109.358 115.062 109.776 113.574C109.914 113.084 110.291 112.725 110.744 112.588ZM106.03 124.172C106.385 124.064 106.78 124.094 107.131 124.285C107.828 124.664 108.085 125.535 107.706 126.231C106.931 127.656 106.084 129.068 105.188 130.427C104.752 131.089 103.862 131.273 103.201 130.837C102.539 130.4 102.356 129.511 102.792 128.848C103.644 127.556 104.449 126.214 105.186 124.86C105.373 124.515 105.683 124.278 106.032 124.172H106.03ZM98.8722 134.423C99.3317 134.284 99.8496 134.378 100.236 134.718C100.832 135.242 100.889 136.149 100.366 136.744C99.2939 137.964 98.1557 139.153 96.9822 140.278C96.4095 140.827 95.5016 140.808 94.9532 140.235C94.4048 139.664 94.4231 138.755 94.9959 138.206C96.1097 137.138 97.1918 136.008 98.2105 134.848C98.3945 134.639 98.6249 134.497 98.8722 134.421V134.423ZM49.514 152.904C49.7041 152.847 49.9088 152.828 50.1184 152.857C51.6465 153.061 53.2051 153.203 54.7491 153.275C55.5412 153.312 56.1529 153.984 56.1151 154.775C56.0786 155.567 55.4059 156.179 54.6138 156.141C52.9882 156.064 51.3468 155.917 49.737 155.701C48.951 155.596 48.4002 154.873 48.505 154.087C48.5817 153.511 48.9912 153.061 49.5128 152.903L49.514 152.904ZM89.6267 142.829C90.197 142.657 90.8368 142.853 91.2048 143.363C91.6691 144.006 91.5241 144.903 90.8819 145.366C89.5646 146.318 88.19 147.224 86.7959 148.057C86.1147 148.461 85.2349 148.244 84.8266 147.564C84.4196 146.884 84.6402 146.002 85.3214 145.594C86.6448 144.802 87.9499 143.942 89.2014 143.039C89.3342 142.942 89.478 142.873 89.6267 142.828V142.829ZM62.0144 153.156C62.1046 153.13 62.1996 153.11 62.2983 153.1C63.835 152.958 65.3851 152.747 66.9071 152.474C67.687 152.334 68.434 152.853 68.5729 153.633C68.7131 154.413 68.1952 155.162 67.414 155.299C65.8128 155.585 64.1811 155.808 62.564 155.958C61.7743 156.031 61.0749 155.451 61.0017 154.661C60.9372 153.97 61.3746 153.348 62.0144 153.155V153.156ZM78.7348 148.958C79.4282 148.748 80.1825 149.092 80.4701 149.773C80.7784 150.503 80.436 151.345 79.7061 151.655C78.2108 152.286 76.6681 152.861 75.1217 153.365C75.1119 153.368 75.1022 153.371 75.0924 153.374C74.3467 153.6 73.5546 153.188 73.3133 152.445C73.0683 151.69 73.4802 150.881 74.2345 150.636C75.7042 150.158 77.1689 149.611 78.5898 149.011C78.6373 148.992 78.6861 148.974 78.7348 148.959V148.958Z" fill="#7D97F4"/>
<path d="M39.6852 150.667C39.9557 150.586 40.253 150.582 40.5418 150.677C41.245 150.906 41.9664 151.124 42.6829 151.325C43.4458 151.54 43.8918 152.332 43.6773 153.095C43.4628 153.858 42.6707 154.304 41.9079 154.088C41.1536 153.876 40.3968 153.647 39.6559 153.407C38.9028 153.162 38.4897 152.352 38.7346 151.598C38.8858 151.133 39.2513 150.799 39.6864 150.667H39.6852Z" fill="#7D97F4"/>
</g>
<g opacity="0.3">
<path d="M6.6612 121.961C7.32412 121.761 8.05284 122.066 8.36602 122.708C8.68895 123.374 9.03138 124.044 9.38477 124.7C9.7601 125.398 9.4981 126.268 8.80106 126.643C8.10037 127.02 7.23272 126.757 6.85739 126.06C6.48694 125.37 6.12501 124.664 5.78502 123.963C5.43894 123.251 5.73628 122.391 6.44916 122.045C6.51862 122.011 6.59052 121.983 6.66242 121.962L6.6612 121.961Z" fill="#7D97F4"/>
<path d="M40.7027 43.9936C41.3351 43.8022 41.9724 43.6218 42.6159 43.4512C43.3824 43.2477 44.1684 43.7035 44.3719 44.4701C44.5754 45.2366 44.116 46.0264 43.3531 46.2262C41.8689 46.6211 40.4029 47.0745 38.982 47.5815C38.2338 47.8471 37.4149 47.4584 37.148 46.7113C36.8811 45.9642 37.2711 45.1428 38.0181 44.8771C38.8979 44.5639 39.8009 44.2665 40.7027 43.9936ZM50.0554 42.0095C50.1322 41.9863 50.2126 41.9693 50.2943 41.9595C51.8833 41.7609 53.498 41.628 55.0943 41.5646C55.8864 41.533 56.5542 42.1496 56.5859 42.9406C56.6176 43.7327 55.9998 44.403 55.2089 44.4323C53.693 44.4932 52.1587 44.62 50.6489 44.8077C49.8629 44.9064 49.1451 44.347 49.0476 43.5609C48.9599 42.8565 49.3986 42.2081 50.0554 42.0095ZM31.0964 47.8995C31.7447 47.7033 32.46 47.9897 32.783 48.6113C33.1485 49.3145 32.8744 50.181 32.1712 50.5478C30.8259 51.2474 29.4915 52.0139 28.2071 52.8268C27.5369 53.2497 26.651 53.0511 26.2269 52.3808C25.8028 51.7105 26.0027 50.8232 26.6729 50.4003C28.0268 49.5436 29.4306 48.7368 30.8478 47.9995C30.9282 47.958 31.0123 47.9239 31.0964 47.8983V47.8995ZM62.3609 41.8413C62.5351 41.7889 62.7228 41.7694 62.9153 41.7877C64.5081 41.9437 66.113 42.1691 67.6849 42.458C68.4649 42.6018 68.9803 43.3501 68.8365 44.1288C68.6927 44.9088 67.9457 45.4243 67.1658 45.2805C65.673 45.0063 64.1486 44.7918 62.6363 44.6443C61.8478 44.5676 61.2702 43.8656 61.347 43.0759C61.4055 42.4799 61.821 42.0034 62.3609 41.8401V41.8413ZM20.8809 54.7463C21.4122 54.5854 22.0117 54.7426 22.3932 55.1948C22.905 55.8005 22.8282 56.706 22.2226 57.2178C21.0649 58.1953 19.9328 59.2373 18.8568 60.3134C18.2962 60.874 17.3871 60.874 16.8266 60.3134C16.266 59.7528 16.266 58.8448 16.8266 58.2842C17.9587 57.152 19.1505 56.0552 20.3703 55.0254C20.525 54.895 20.6981 54.8024 20.8809 54.7475V54.7463ZM12.4152 63.6685C12.8405 63.5406 13.3182 63.61 13.6984 63.8989C14.3297 64.3778 14.454 65.2784 13.9738 65.9097C13.055 67.1211 12.1764 68.385 11.3624 69.6658C10.9383 70.3361 10.0512 70.5336 9.38092 70.1082C8.71191 69.6829 8.51328 68.7969 8.93857 68.1266C9.79525 66.7775 10.7189 65.4478 11.6865 64.1731C11.8766 63.922 12.1337 63.7514 12.414 63.6673L12.4152 63.6685ZM6.09557 74.225C6.4185 74.1275 6.77677 74.1422 7.10823 74.2945C7.82842 74.6248 8.14526 75.4767 7.81502 76.1969C7.18135 77.5802 6.59885 79.0049 6.08339 80.4332C5.81408 81.179 4.99274 81.5654 4.24573 81.296C3.49995 81.0267 3.11365 80.2053 3.38296 79.4582C3.92524 77.9568 4.5382 76.4565 5.20477 75.0002C5.38391 74.6102 5.71415 74.3384 6.09557 74.2238V74.225ZM2.22895 85.9077C2.45317 85.8406 2.69567 85.826 2.94061 85.8784C3.71564 86.0429 4.21039 86.8046 4.04588 87.581C3.73027 89.069 3.47436 90.5863 3.28548 92.0927C3.18677 92.8787 2.46779 93.4369 1.68301 93.3382C0.895797 93.2395 0.338896 92.5216 0.437603 91.7356C0.636235 90.1488 0.905546 88.5511 1.23822 86.985C1.35155 86.4537 1.74394 86.0551 2.22895 85.9089V85.9077ZM1.02009 98.1582C1.14561 98.1204 1.27966 98.0997 1.41736 98.0973C2.20945 98.0863 2.8614 98.7213 2.87115 99.5134C2.89065 101.031 2.97595 102.566 3.1234 104.08C3.20017 104.868 2.62134 105.57 1.83412 105.647C1.04569 105.724 0.342552 105.148 0.26578 104.358C0.109799 102.766 0.0208405 101.149 0.000124307 99.5512C-0.00840591 98.8968 0.422979 98.3386 1.01888 98.1582H1.02009ZM2.53116 110.367C2.55919 110.359 2.58844 110.351 2.61646 110.344C3.38784 110.161 4.16165 110.639 4.34322 111.411C4.60035 112.5 4.89525 113.593 5.21818 114.662C5.33516 115.05 5.45581 115.435 5.58132 115.816C5.82748 116.571 5.41559 117.381 4.66128 117.626C3.90331 117.889 3.09781 117.46 2.85165 116.707C2.72004 116.305 2.59331 115.9 2.47023 115.493C2.13024 114.368 1.82072 113.218 1.55019 112.072C1.37471 111.33 1.80975 110.585 2.52994 110.369L2.53116 110.367Z" fill="#7D97F4"/>
<path d="M74.4349 44.3982C74.7078 44.3153 75.0076 44.3129 75.2988 44.4091C76.0361 44.6529 76.7831 44.9173 77.5179 45.194C78.26 45.4731 78.6342 46.3018 78.3551 47.0428C78.0748 47.785 77.2486 48.1591 76.5065 47.88C75.8082 47.6168 75.099 47.3657 74.3995 47.1342C73.6476 46.8856 73.2382 46.0739 73.4868 45.3207C73.6391 44.8588 74.0035 44.5273 74.4361 44.3969L74.4349 44.3982Z" fill="#7D97F4"/>
</g>
<path d="M77.3933 60.8955C77.1557 60.7359 76.8438 60.7444 76.6147 60.9163L70.0939 65.8301C66.5295 64.4761 62.7238 63.6815 58.8024 63.5328L54.7164 56.4692C54.5726 56.2218 54.2887 56.0914 54.0072 56.1462L44.3948 58.0194C44.1133 58.0742 43.8988 58.3009 43.8586 58.5848L42.7229 66.6649C39.1439 68.2737 35.9146 70.4393 33.1191 73.0327L25.2311 70.9256C24.9545 70.8512 24.662 70.9609 24.5024 71.1986L19.0296 79.3201C18.87 79.5578 18.8773 79.8697 19.0503 80.0989L23.9637 86.6202C22.6099 90.185 21.8153 93.991 21.6679 97.9129L14.6049 101.999C14.3575 102.143 14.2271 102.427 14.2819 102.709L16.1549 112.322C16.2098 112.603 16.4364 112.818 16.7204 112.858L24.7997 113.994C26.4082 117.573 28.5737 120.803 31.1669 123.599L29.0599 131.487C28.9856 131.764 29.0965 132.056 29.3329 132.216L37.4537 137.689C37.6913 137.849 38.0032 137.84 38.2323 137.669L44.7531 132.755C48.3175 134.109 52.1232 134.903 56.0447 135.052L60.1306 142.116C60.2744 142.363 60.5584 142.494 60.8399 142.439L70.4522 140.566C70.7337 140.511 70.9482 140.284 70.9884 140L72.1241 131.92C75.7031 130.311 78.9324 128.146 81.7279 125.552L89.6159 127.659C89.8925 127.734 90.185 127.624 90.3459 127.386L95.8186 119.265C95.9782 119.027 95.9697 118.715 95.7979 118.486L90.8845 111.965C92.2384 108.4 93.0329 104.594 93.1803 100.672L100.243 96.5857C100.491 96.4431 100.621 96.1579 100.566 95.8764L98.6933 86.2631C98.6385 85.9816 98.4118 85.7671 98.1279 85.7269L90.0485 84.5911C88.44 81.0117 86.2745 77.7821 83.6813 74.9863L85.7871 67.0976C85.8614 66.8209 85.7517 66.5284 85.5141 66.3676L77.3933 60.8943V60.8955Z" fill="#ADDAFF"/>
<path d="M54.5839 89.8667C59.178 88.4786 64.2304 90.6345 66.3325 95.1036C68.6429 100.016 66.5262 105.892 61.6153 108.202C59.2353 109.322 56.5629 109.448 54.0892 108.556C51.6154 107.665 49.6364 105.864 48.5177 103.483C46.2072 98.5708 48.324 92.6954 53.2349 90.3847C53.6773 90.1763 54.1294 90.0045 54.5839 89.8667ZM59.5924 106.525C59.947 106.418 60.2955 106.285 60.6379 106.124C64.4034 104.354 66.0266 99.8468 64.2547 96.081C62.4829 92.3151 57.9789 90.6906 54.2122 92.4638C50.4468 94.2346 48.8236 98.7414 50.5954 102.507C51.4533 104.332 52.9705 105.713 54.8678 106.396C56.4094 106.952 58.0521 106.992 59.5936 106.527L59.5924 106.525Z" fill="#E6ECEF"/>
<path d="M50.2812 76.3132C51.0696 76.0744 51.8751 75.8745 52.6952 75.7148C52.9536 75.6649 53.2119 75.6186 53.4715 75.5759C54.751 75.3687 56.0464 75.2639 57.3357 75.2627C57.3527 75.2627 57.371 75.2627 57.3881 75.2627C57.438 75.2627 57.488 75.2627 57.538 75.2627C57.6354 75.2627 57.7317 75.2651 57.8292 75.2664C58.0839 75.2712 58.2971 75.4418 58.3678 75.6734C58.3849 75.7295 58.3934 75.7904 58.3922 75.8513C58.3861 76.1682 58.1229 76.4193 57.8073 76.4132C56.1756 76.3803 54.5305 76.5241 52.9158 76.8385C44.8962 78.3997 38.6557 83.968 35.8639 91.0597C34.3102 95.0035 33.8252 99.4201 34.694 103.881C34.8464 104.663 35.0365 105.432 35.2643 106.184C36.7949 111.249 39.9937 115.596 44.4392 118.593C49.5464 122.035 55.6881 123.283 61.7324 122.104C74.2157 119.67 82.3853 107.542 79.9554 95.062C79.8055 94.293 79.6178 93.5337 79.3924 92.7878C78.4163 89.557 76.7443 86.5761 74.4851 84.0643C74.4266 83.9997 74.3863 83.9253 74.362 83.8461C74.2998 83.6402 74.3571 83.4062 74.5277 83.2526C74.7641 83.0418 75.126 83.0588 75.3381 83.2953C77.7095 85.9326 79.4655 89.0622 80.4903 92.4539C80.7267 93.2363 80.9242 94.0334 81.0826 94.8402C83.6343 107.943 75.0493 120.678 61.953 123.229C55.6065 124.466 49.1589 123.156 43.7982 119.542C39.131 116.397 35.7725 111.833 34.1652 106.515C33.9263 105.726 33.7265 104.919 33.5668 104.098C32.3312 97.7505 33.64 91.3022 37.2531 85.9399C40.3995 81.271 44.9656 77.9122 50.2824 76.3059L50.2812 76.3132Z" fill="#E6ECEF"/>
<g opacity="0.3">
<path d="M144.377 25.3961C144.744 25.2852 145.154 25.4229 145.375 25.7605C145.787 26.3905 146.185 27.0413 146.558 27.6958C146.801 28.1211 146.653 28.6622 146.228 28.9047C145.803 29.1497 145.262 28.9998 145.019 28.5745C144.663 27.9517 144.283 27.3302 143.891 26.7293C143.623 26.3198 143.738 25.7702 144.148 25.5021C144.221 25.4546 144.298 25.4192 144.377 25.3961Z" fill="#7D97F4"/>
<path d="M147.568 31.4242C147.998 31.2938 148.465 31.5083 148.642 31.9324C149.14 33.1279 149.583 34.3637 149.958 35.6044C150.037 35.8652 150.112 36.1284 150.187 36.3929C150.318 36.8645 150.012 37.3435 149.571 37.4861C149.1 37.6177 148.611 37.3423 148.479 36.8706C148.409 36.6184 148.337 36.3661 148.261 36.1175C147.904 34.9353 147.481 33.7568 147.006 32.6161C146.817 32.1639 147.032 31.6448 147.483 31.4559C147.512 31.4449 147.54 31.4339 147.568 31.4254V31.4242ZM150.043 40.2903C150.083 40.2782 150.125 40.2684 150.167 40.2623C150.651 40.1892 151.103 40.5219 151.177 41.007C151.413 42.5596 151.554 44.1415 151.598 45.7075C151.611 46.1975 151.222 46.6045 150.736 46.6179C150.246 46.6313 149.839 46.2462 149.826 45.7563C149.785 44.2634 149.65 42.7546 149.425 41.2726C149.358 40.8315 149.629 40.4171 150.044 40.2916L150.043 40.2903ZM150.294 49.4917C150.401 49.4588 150.517 49.4466 150.636 49.4575C151.124 49.5051 151.48 49.9389 151.432 50.4264C151.28 51.9876 151.029 53.5561 150.684 55.0892C150.577 55.5682 150.104 55.8668 149.624 55.7595C149.146 55.6523 148.846 55.1782 148.953 54.7005C149.282 53.2392 149.523 51.7439 149.668 50.2546C149.704 49.8865 149.96 49.5928 150.294 49.4917ZM148.275 58.4736C148.45 58.42 148.644 58.4212 148.829 58.4882C149.29 58.654 149.53 59.1622 149.364 59.6229C148.833 61.1024 148.205 62.56 147.498 63.9591C147.277 64.3954 146.743 64.5696 146.308 64.349C145.87 64.1285 145.696 63.5947 145.917 63.1571C146.591 61.8251 147.19 60.4333 147.696 59.0232C147.795 58.7478 148.015 58.5528 148.275 58.4736ZM144.123 66.6902C144.368 66.6159 144.644 66.6488 144.874 66.8023C145.279 67.0753 145.388 67.625 145.116 68.032C144.242 69.3348 143.28 70.5974 142.255 71.782C141.934 72.1537 141.375 72.1939 141.005 71.8734C140.634 71.5529 140.594 70.9923 140.913 70.623C141.89 69.492 142.809 68.2879 143.643 67.0448C143.762 66.8681 143.933 66.7475 144.123 66.6902ZM138.104 73.6491C138.422 73.5528 138.782 73.6405 139.019 73.9038C139.347 74.267 139.319 74.8276 138.956 75.1554C137.791 76.2072 136.551 77.1968 135.267 78.0937C134.864 78.374 134.313 78.2765 134.033 77.8756C133.753 77.4746 133.85 76.9213 134.251 76.641C135.474 75.7843 136.658 74.8422 137.768 73.8392C137.868 73.7478 137.984 73.6856 138.105 73.6491H138.104ZM130.57 78.9237C130.967 78.803 131.407 78.9773 131.609 79.3575C131.838 79.7902 131.672 80.3264 131.24 80.5555C129.858 81.2868 128.41 81.9412 126.941 82.5006C126.479 82.6676 125.971 82.4433 125.796 81.9863C125.622 81.5293 125.852 81.0174 126.311 80.8432C127.714 80.3106 129.094 79.6866 130.411 78.9895C130.464 78.9627 130.516 78.9407 130.57 78.9249V78.9237ZM117.427 83.0113C117.476 82.9966 117.527 82.9857 117.581 82.9796C118.864 82.8285 120.162 82.603 121.437 82.3117C121.631 82.2691 121.82 82.224 122.009 82.1777C122.484 82.0607 122.964 82.3507 123.081 82.8272C123.2 83.3038 122.909 83.7986 122.433 83.9009C122.232 83.9497 122.031 83.9984 121.827 84.0435C120.494 84.3482 119.133 84.5834 117.788 84.7418C117.301 84.7991 116.86 84.4518 116.803 83.9655C116.752 83.5329 117.022 83.1356 117.426 83.0137L117.427 83.0113Z" fill="#7D97F4"/>
</g>
<g opacity="0.3">
<path d="M101.748 10.2083C102.212 10.0682 102.703 10.3265 102.85 10.7897C102.998 11.2564 102.739 11.7549 102.272 11.9023C100.867 12.3472 99.477 12.881 98.1402 13.4891C97.6954 13.6865 97.169 13.4964 96.9655 13.0504C96.762 12.6043 96.9594 12.0791 97.4042 11.8755C98.8056 11.2381 100.263 10.6775 101.736 10.212C101.74 10.212 101.744 10.2095 101.748 10.2083ZM106.146 9.10295C106.177 9.0932 106.207 9.08589 106.24 9.0798C107.756 8.7934 109.306 8.59718 110.845 8.49481C111.334 8.46313 111.756 8.8324 111.789 9.3211C111.821 9.80981 111.449 10.2315 110.964 10.2656C109.495 10.3631 108.017 10.5508 106.569 10.8238C106.088 10.9152 105.625 10.5983 105.535 10.1169C105.449 9.66722 105.72 9.23336 106.148 9.10417L106.146 9.10295ZM93.512 13.962C93.8885 13.8486 94.3077 13.9961 94.5234 14.3471C94.7793 14.7639 94.6489 15.3099 94.2309 15.5658C92.9746 16.3385 91.7547 17.1916 90.6044 18.1068C90.2193 18.4103 89.6636 18.3481 89.359 17.9642C89.0543 17.5816 89.1177 17.0234 89.5015 16.7187C90.7067 15.7608 91.9863 14.865 93.3036 14.0558C93.3706 14.0144 93.4401 13.9839 93.512 13.962ZM115.184 8.50822C115.28 8.47897 115.383 8.46556 115.489 8.47166C117.031 8.55819 118.583 8.74221 120.102 9.01642C120.583 9.10295 120.904 9.56485 120.817 10.0462C120.729 10.5264 120.269 10.8469 119.787 10.7604C118.34 10.4984 116.86 10.3241 115.39 10.2412C114.901 10.2132 114.527 9.79518 114.555 9.30648C114.577 8.92502 114.837 8.61303 115.184 8.50822ZM86.4282 19.5949C86.7292 19.5047 87.068 19.5766 87.3068 19.8118C87.6566 20.1555 87.6602 20.7173 87.3166 21.0659C86.2844 22.114 85.3059 23.2364 84.4078 24.4027C84.1092 24.7915 83.5523 24.8634 83.1648 24.5636C82.7773 24.265 82.7042 23.7081 83.004 23.3205C83.9459 22.0981 84.972 20.9209 86.0541 19.8216C86.1626 19.7119 86.2917 19.6363 86.4294 19.5949H86.4282ZM80.9019 26.7634C81.1322 26.6939 81.3881 26.7171 81.6111 26.8499C82.0315 27.0998 82.1704 27.6445 81.9206 28.065C81.1675 29.3337 80.4851 30.6584 79.8929 32.0027C79.6954 32.4511 79.1714 32.6534 78.7242 32.456C78.2758 32.2586 78.0735 31.7358 78.2709 31.2873C78.8924 29.8772 79.6077 28.4891 80.3961 27.1595C80.5143 26.9608 80.6971 26.8255 80.9019 26.7634ZM77.2521 35.0507C77.4142 35.0019 77.5909 34.9983 77.7652 35.0507C78.2343 35.192 78.4988 35.6868 78.3574 36.156C77.9297 37.5673 77.5848 39.0164 77.3338 40.4642C77.2497 40.9456 76.7903 41.2698 76.309 41.1857C75.8264 41.1016 75.5034 40.6434 75.5875 40.1607C75.852 38.6434 76.2127 37.1225 76.6611 35.6417C76.7513 35.3468 76.9804 35.1335 77.2546 35.0507H77.2521Z" fill="#7D97F4"/>
<path d="M124.136 10.1289C124.299 10.0789 124.479 10.0765 124.655 10.1313C125.38 10.3568 126.1 10.6042 126.798 10.8674C127.256 11.0405 127.488 11.5524 127.315 12.0106C127.141 12.4676 126.631 12.6992 126.172 12.5273C125.507 12.2763 124.818 12.0399 124.127 11.8241C123.659 11.6791 123.398 11.1819 123.545 10.7139C123.636 10.4226 123.864 10.2106 124.136 10.1289Z" fill="#7D97F4"/>
</g>
<path d="M126.739 21.3056C126.581 21.1984 126.371 21.2045 126.219 21.319L121.855 24.6071C119.47 23.7016 116.923 23.169 114.299 23.0703L111.565 18.3441C111.469 18.1784 111.279 18.0919 111.091 18.1284L104.659 19.3813C104.471 19.4178 104.328 19.5702 104.301 19.7591L103.54 25.1665C101.146 26.2439 98.9853 27.6929 97.1135 29.4271L91.8357 28.0171C91.6505 27.9683 91.4543 28.0415 91.3471 28.1999L87.6852 33.6342C87.578 33.7926 87.584 34.0022 87.6986 34.1558L90.9864 38.52C90.081 40.905 89.5484 43.4521 89.4497 46.076L84.724 48.8096C84.5583 48.9059 84.4717 49.096 84.5083 49.2837L85.761 55.7161C85.7976 55.9038 85.9499 56.0488 86.1388 56.0744L91.5457 56.8349C92.6217 59.2297 94.0719 61.3904 95.806 63.2612L94.396 68.5407C94.3473 68.7259 94.4204 68.9221 94.5788 69.0281L100.014 72.6904C100.172 72.7976 100.382 72.7915 100.534 72.677L104.898 69.3889C107.283 70.2944 109.83 70.827 112.453 70.9257L115.188 75.6519C115.284 75.8176 115.474 75.9041 115.662 75.8676L122.094 74.6147C122.281 74.5782 122.425 74.4258 122.452 74.2369L123.212 68.8295C125.607 67.7534 127.767 66.3031 129.639 64.5689L134.917 65.9789C135.102 66.0289 135.298 65.9545 135.406 65.7961L139.068 60.3618C139.175 60.2034 139.169 59.9938 139.054 59.8402L135.766 55.476C136.672 53.091 137.204 50.5439 137.303 47.92L142.029 45.1864C142.194 45.0901 142.281 44.9 142.244 44.7123L140.992 38.2799C140.955 38.0922 140.803 37.9484 140.614 37.9216L135.207 37.1611C134.131 34.7663 132.682 32.6056 130.947 30.7336L132.357 25.4553C132.407 25.2701 132.332 25.0739 132.174 24.9666L126.74 21.3044L126.739 21.3056Z" fill="#ADDAFF"/>
<path d="M111.453 40.5745C112.821 40.1614 114.281 40.1967 115.651 40.6903C117.336 41.2972 118.684 42.5245 119.446 44.1454C121.019 47.4908 119.578 51.493 116.232 53.0676C112.88 54.6373 108.884 53.1992 107.31 49.8538C106.547 48.233 106.461 46.4122 107.068 44.7267C107.675 43.0412 108.902 41.6933 110.523 40.9304C110.826 40.7878 111.136 40.6696 111.45 40.5745H111.453ZM114.803 51.7221C115.031 51.6527 115.257 51.5674 115.479 51.4626C117.939 50.3036 119 47.3604 117.842 44.8985C117.281 43.7066 116.289 42.8036 115.05 42.3575C113.81 41.9115 112.472 41.9748 111.279 42.5342C110.087 43.0948 109.184 44.0869 108.738 45.3263C108.292 46.567 108.354 47.9051 108.916 49.0982C109.969 51.337 112.501 52.4168 114.803 51.7221Z" fill="#E6ECEF"/>
<path d="M108.464 31.1368C109.002 30.9747 109.551 30.8382 110.113 30.7285C111.229 30.5103 112.367 30.4067 113.502 30.4189C113.553 30.4189 113.604 30.4214 113.654 30.4214C114.048 30.4287 114.377 30.6919 114.485 31.0502C114.512 31.1368 114.524 31.2306 114.523 31.3257C114.513 31.8156 114.108 32.2019 113.619 32.1934C112.561 32.1727 111.496 32.2653 110.453 32.4688C110.396 32.4798 110.338 32.492 110.281 32.5042C107.818 33.0087 105.574 34.108 103.701 35.6862C102.684 36.543 101.777 37.5423 101.004 38.6672C100.998 38.6757 100.992 38.6855 100.986 38.694C100.966 38.7221 100.948 38.7501 100.928 38.7781C98.7008 42.0845 97.8929 46.0612 98.6558 49.9745C98.7545 50.4815 98.8775 50.9787 99.025 51.4662C100.016 54.7445 102.086 57.5598 104.966 59.5C108.272 61.7278 112.248 62.5346 116.161 61.7729C120.071 61.01 123.457 58.77 125.686 55.4636C127.913 52.1572 128.721 48.1805 127.958 44.2672C127.862 43.7688 127.739 43.2776 127.594 42.795C126.961 40.7037 125.879 38.7732 124.417 37.1475C124.327 37.0475 124.263 36.933 124.228 36.8111C124.132 36.493 124.22 36.1323 124.484 35.8958C124.848 35.5692 125.408 35.5973 125.737 35.9629C127.372 37.7824 128.585 39.9408 129.291 42.2807C129.455 42.8206 129.591 43.3702 129.7 43.9272C130.553 48.306 129.65 52.7544 127.156 56.4544C124.663 60.1532 120.883 62.6625 116.502 63.5132C112.124 64.3663 107.676 63.4632 103.977 60.9697C100.757 58.7992 98.4401 55.65 97.3324 51.9829C97.1678 51.4381 97.0289 50.8812 96.9192 50.3157C95.268 41.8383 100.374 33.5839 108.469 31.138L108.464 31.1368Z" fill="#E6ECEF"/>
<mask id="mask0_72_14431" style="mask-type:luminance" maskUnits="userSpaceOnUse" x="7" y="100" width="328" height="241">
<path d="M334.747 100.879H7.84375V340.301H334.747V100.879Z" fill="white"/>
</mask>
<g mask="url(#mask0_72_14431)">
<path d="M307.815 502.13C281.674 473.473 217.324 411.077 146.644 385.176C140.763 383.021 135.978 378.622 133.269 372.974L122.695 350.931C122.695 350.931 71.1567 338.852 39.4023 372.105C39.4023 372.105 41.3375 403.735 81.2199 415.298C118.451 426.092 228.772 469.918 293.843 519.028C295.336 520.154 297.406 520.207 298.883 519.061C304.056 515.046 307.297 510.038 308.676 506.508C309.261 505.011 308.896 503.315 307.813 502.128L307.815 502.13Z" fill="url(#paint0_linear_72_14431)"/>
<path d="M33.8027 371.684C33.8027 371.684 44.3168 376.284 62.3411 367.952C80.3655 359.62 129.375 358.79 129.375 358.79C129.375 358.79 113.498 299.361 148.78 256.844C148.78 256.844 177.198 310.04 197.168 317.978L206.114 318.389V280.44C206.114 280.44 198.528 233.591 150.545 198.606L135.605 185.139C135.605 185.139 83.0708 174.546 47.345 237.22C11.6205 299.894 33.8027 371.682 33.8027 371.682V371.684Z" fill="#018CFF"/>
<path d="M209.134 207.814C209.634 205.181 209.823 199.02 203.469 191.512C194.969 181.466 184.064 186.588 184.064 186.588C174.401 191.999 170.32 209.668 170.32 209.668L180.536 204.216C182.083 208.71 197.17 213.557 197.17 213.557L197.254 213.525C197.4 223.298 197.164 251.802 190.232 271.626C187.517 279.393 181.995 293.823 200.228 318.551L210.275 318.14C210.275 318.14 232.786 279.922 209.133 207.816L209.134 207.814Z" fill="url(#paint1_linear_72_14431)"/>
<path d="M158.069 149.879L130.093 189.385C128.275 191.953 128.523 195.436 130.673 197.732C134.443 201.757 140.799 207.426 147.651 208.72C149.779 209.123 151.943 208.229 153.125 206.415L168.003 183.575C168.003 183.575 170.852 147.696 158.069 149.879Z" fill="url(#paint2_linear_72_14431)"/>
<path d="M176.644 124.202C177.111 124.823 192.245 173.902 192.245 173.902L164.04 181.949L142.785 137.564C142.785 137.564 168.839 113.8 176.644 124.202Z" fill="url(#paint3_linear_72_14431)"/>
<path d="M153.981 144.85L162.957 168.1C163.154 168.607 163.423 169.075 163.761 169.5C165.268 171.391 169.65 175.847 174.503 171.078C178.179 167.466 181.645 164.146 184.947 162.486C187.856 161.024 191.38 162.618 192.308 165.74C193.698 170.419 195.888 178.453 197.031 186.11C197.444 188.877 195.631 191.493 192.892 192.066C187.152 193.267 177.132 195.02 168.355 194.815C166.409 194.77 164.662 193.622 163.798 191.877C160.55 185.309 152.391 169.007 149.321 164.665C146.499 160.673 140.126 160.696 136.876 161.002C135.367 161.144 133.879 160.64 132.774 159.601C130.183 157.169 126.711 152.265 131.655 146.174C133.375 144.055 133.231 141.043 131.338 139.077C128.603 136.236 126.336 131.701 130.657 126.005C135.235 119.97 141.425 120.297 145.596 121.495C147.63 122.078 149.706 121.187 151.042 119.546C151.432 119.068 151.984 118.701 152.765 118.576C155.314 118.165 157.274 116.203 157.346 113.623C157.453 109.808 159.101 105.373 165.395 103.211C177.695 98.9861 185.784 110.754 186.812 119.68C187.839 128.607 174.243 132.429 166.172 132.06C160.579 131.804 156.454 136.935 154.448 140.108C153.55 141.528 153.376 143.282 153.98 144.85H153.981Z" fill="#018CFF"/>
<path d="M152.819 173.457C152.819 173.457 150.362 157.979 143.876 157.407C137.392 156.834 131.257 162.328 137.936 170.861C146.243 181.475 152.819 173.457 152.819 173.457Z" fill="url(#paint4_linear_72_14431)"/>
<path d="M82.6265 190.878C82.6265 190.878 26.2344 226.848 13.8888 268.607C1.54312 310.367 29.1737 318.583 55.4809 322.283L57.4611 290.395C57.4611 290.395 39.0322 290.395 50.7881 272.965C62.5439 255.535 94.1362 243.914 94.1362 243.914C94.1362 243.914 174.181 168.383 82.6265 190.878Z" fill="#018CFF"/>
<path d="M57.4594 291.121C57.1364 291.121 49.5202 291.065 46.9526 286.235C45.2002 282.939 46.2872 278.337 50.1855 272.559C61.9377 255.134 92.5856 243.711 93.8846 243.233C94.2611 243.095 94.6791 243.288 94.8168 243.664C94.9545 244.041 94.762 244.458 94.3867 244.597C94.0723 244.713 62.8785 256.339 51.3895 273.372C47.8178 278.668 46.7552 282.766 48.2333 285.551C50.389 289.612 57.3899 289.67 57.4606 289.67C57.8615 289.67 58.1856 289.995 58.1856 290.397C58.1856 290.798 57.8603 291.122 57.4594 291.122V291.121Z" fill="url(#paint5_linear_72_14431)"/>
<path d="M55.4792 322.283C55.4792 322.283 47.2415 308.665 58.0907 292.396L130.918 304.455C130.918 304.455 165.779 298.556 167.446 298.676C169.113 298.795 191.864 312.81 191.864 312.81C191.864 312.81 191.1 314.435 185.686 314.135C180.271 313.835 183.826 314.789 183.826 314.789L183.63 317.524C183.63 317.524 179.861 318.388 176.837 315.172C173.814 311.956 165.411 310.398 165.411 310.398C165.411 310.398 147.548 323.598 130.002 317.211L55.4792 322.282V322.283Z" fill="url(#paint6_linear_72_14431)"/>
<path d="M161.442 552.037C160.872 552.037 160.293 551.92 159.735 551.675C157.54 550.708 156.526 548.102 157.471 545.854L248.188 329.816C249.133 327.569 251.673 326.532 253.871 327.497C256.065 328.465 257.079 331.07 256.135 333.319L165.417 549.356C164.713 551.033 163.118 552.037 161.442 552.037Z" fill="url(#paint7_linear_72_14431)"/>
<path d="M263.64 552.038C261.963 552.038 260.368 551.033 259.665 549.356L168.947 333.319C168.003 331.071 169.017 328.465 171.211 327.497C173.405 326.53 175.949 327.568 176.894 329.817L267.611 545.854C268.556 548.102 267.542 550.708 265.347 551.676C264.79 551.921 264.21 552.038 263.64 552.038Z" fill="url(#paint8_linear_72_14431)"/>
<path d="M330.743 323.366C330.875 322.026 330.696 320.642 330.253 319.589C329.812 318.537 329.154 317.928 328.461 317.928H93.3949C92.4821 317.928 91.6328 318.842 91.1404 320.353C90.6493 321.864 90.5823 323.764 90.965 325.392L93.5118 336.23C94.0956 338.713 95.3592 340.301 96.7497 340.301H326.845C328.139 340.301 329.25 338.497 329.497 336L330.741 323.364L330.743 323.366Z" fill="#181818"/>
</g>
<path d="M229.071 62.4261C198.296 77.119 178.079 107.698 201.975 106.269C246.839 103.59 216.56 128.581 240.154 127.844C263.75 127.11 300.273 122.076 324.171 97.3107C348.069 72.5451 324.839 66.6258 315.153 67.5837C283.261 70.7402 325.465 16.4013 229.07 62.4249L229.071 62.4261Z" fill="#94CEFF"/>
<path d="M218.641 140.015C218.706 143.5 221.27 149.22 227.028 149.114C232.786 149.008 239.557 143.115 239.493 139.63C239.428 136.144 234.709 133.406 228.951 133.512C223.193 133.618 218.577 136.529 218.641 140.014V140.015Z" fill="#94CEFF"/>
<path d="M210 154.06C210.031 155.748 211.515 157.089 213.315 157.056C215.115 157.023 218.674 155.229 218.643 153.541C218.612 151.853 216.38 150.166 214.58 150.199C212.78 150.232 209.969 152.372 210 154.06Z" fill="#94CEFF"/>
<path d="M276.429 90.1097C276.381 89.5248 275.784 89.019 274.774 88.6131C275.873 88.0074 276.481 87.3579 276.429 86.7205C276.273 84.7925 270.17 83.7127 262.797 84.3074C255.423 84.9022 249.571 86.9472 249.726 88.874C249.773 89.4589 250.37 89.9647 251.381 90.3705C250.281 90.9762 249.673 91.6258 249.726 92.2632C249.773 92.8482 250.37 93.354 251.381 93.7598C250.281 94.3655 249.673 95.0151 249.726 95.6525C249.773 96.2374 250.37 96.7432 251.381 97.1491C250.281 97.7548 249.673 98.4043 249.726 99.0417C249.794 99.8936 251.028 100.581 253.02 101.031C252.994 101.661 253.009 102.352 253.07 103.113C253.358 106.665 257.353 109.45 262.637 109.45C267.921 109.45 272.494 105.652 272.545 102.09C272.558 101.216 272.521 100.448 272.442 99.7644C274.97 98.9198 276.509 97.8888 276.429 96.8882C276.381 96.3033 275.784 95.7975 274.774 95.3917C275.873 94.786 276.481 94.1364 276.429 93.499C276.381 92.914 275.784 92.4082 274.774 92.0024C275.873 91.3967 276.481 90.7471 276.429 90.1097Z" fill="#181818"/>
<path d="M259.383 101.795C257.193 101.795 255.19 101.634 253.534 101.318C253.438 101.299 253.376 101.207 253.394 101.11C253.412 101.014 253.505 100.952 253.601 100.97C256.192 101.466 259.651 101.576 263.344 101.277C266.365 101.034 269.191 100.546 271.516 99.8673C271.61 99.8404 271.708 99.8941 271.735 99.9879C271.762 100.082 271.708 100.18 271.614 100.207C269.267 100.892 266.417 101.385 263.372 101.63C262 101.74 260.66 101.795 259.383 101.795Z" fill="url(#paint9_linear_72_14431)"/>
<path d="M259.423 98.4033C256.578 98.4033 254.035 98.1352 252.242 97.6245C252.148 97.5977 252.093 97.5002 252.12 97.4052C252.147 97.3113 252.244 97.2565 252.339 97.2833C254.895 98.0109 259.01 98.2363 263.348 97.8866C267.639 97.5404 271.64 96.6703 274.052 95.5576C274.141 95.5162 274.246 95.5551 274.288 95.6441C274.329 95.7331 274.29 95.8379 274.201 95.8793C271.753 97.0079 267.707 97.8902 263.378 98.24C262.026 98.3484 260.695 98.4021 259.426 98.4021L259.423 98.4033Z" fill="url(#paint10_linear_72_14431)"/>
<path d="M259.384 95.0168C256.311 95.0168 253.623 94.7023 251.814 94.1052C251.721 94.0747 251.67 93.9748 251.7 93.8822C251.731 93.7895 251.831 93.7383 251.924 93.7688C254.442 94.5988 258.712 94.8718 263.344 94.4988C267.635 94.1527 271.635 93.2825 274.048 92.1699C274.137 92.1296 274.242 92.1674 274.283 92.2564C274.325 92.3454 274.286 92.4502 274.197 92.4916C271.749 93.6201 267.703 94.5037 263.373 94.8523C262.001 94.9632 260.659 95.0168 259.385 95.0168H259.384Z" fill="url(#paint11_linear_72_14431)"/>
<path d="M259.41 91.6265C256.973 91.6265 254.756 91.429 253.033 91.0464C252.938 91.0256 252.877 90.9306 252.899 90.8355C252.92 90.7405 253.015 90.6795 253.11 90.7015C255.701 91.2767 259.432 91.4266 263.346 91.1109C267.598 90.7685 271.579 89.9069 273.995 88.8064C274.084 88.7661 274.189 88.8051 274.229 88.8941C274.27 88.9831 274.231 89.0879 274.142 89.1281C271.69 90.2444 267.665 91.117 263.374 91.4632C262.018 91.5728 260.683 91.6265 259.409 91.6265H259.41Z" fill="url(#paint12_linear_72_14431)"/>
<path d="M244.777 73.0024C243.881 69.8301 242.36 66.8649 240.312 64.2825C235.922 58.7495 228.761 47.4971 227.88 32.14C226.596 9.80213 246.406 -1.38204 264.483 0.136479C282.559 1.655 300.396 15.1157 298.444 35.8973C297.242 48.6841 290.086 58.3826 284.758 63.9534C281.375 67.4901 278.961 71.8227 277.655 76.5403C276.056 82.3146 272.25 89.5099 263.206 89.9486C251.502 90.5166 246.641 79.6054 244.777 73.0048V73.0024Z" fill="url(#paint13_linear_72_14431)"/>
<path d="M266.194 85.4935L272.518 44.3508C272.649 43.5014 273.067 42.9298 273.453 43.0761C273.838 43.2223 274.045 44.0291 273.914 44.8798C273.91 44.9029 273.905 44.9309 273.901 44.9529L266.697 85.7129C266.643 86.0188 266.487 86.2126 266.35 86.1455C266.216 86.0797 266.149 85.7909 266.194 85.4947V85.4935Z" fill="url(#paint14_linear_72_14431)"/>
<path d="M259.631 85.8197L253.306 44.677C253.176 43.8276 252.758 43.256 252.371 43.4022C251.985 43.5485 251.779 44.3553 251.911 45.2047C251.914 45.2279 251.919 45.2559 251.923 45.2778L259.127 86.0378C259.181 86.3437 259.337 86.5375 259.475 86.4705C259.609 86.4047 259.676 86.1158 259.631 85.8197Z" fill="url(#paint15_linear_72_14431)"/>
<path opacity="0.79" d="M272.477 40.8175C272.316 40.5591 271.944 40.4628 271.647 40.6018L268.125 42.247L266.903 38.764C266.838 38.5824 266.688 38.4215 266.475 38.3325C266.071 38.1656 265.586 38.3155 265.393 38.6665L265.387 38.6774L262.49 43.9593L259.802 36.4411L259.797 36.4289C259.731 36.2449 259.593 36.0803 259.39 35.9707C258.939 35.7245 258.345 35.8415 258.061 36.2327L254.011 41.8071C253.847 42.035 253.903 42.3421 254.154 42.5103C254.422 42.6907 254.807 42.6492 255.015 42.4164L258.581 38.4386L261.791 45.5912L261.793 45.5961C261.845 45.7106 261.942 45.8106 262.076 45.8739C262.377 46.0153 262.754 45.9178 262.916 45.657L266.013 40.6859L267.18 43.2001L267.189 43.222C267.198 43.2403 267.208 43.2574 267.219 43.2756C267.379 43.534 267.75 43.6303 268.048 43.4914L272.229 41.5378C272.528 41.3988 272.639 41.0759 272.478 40.8175H272.477Z" fill="white"/>
<path opacity="0.79" d="M284.893 58.4621C284.765 58.4621 284.638 58.4231 284.527 58.3402C284.252 58.1379 284.196 57.7516 284.399 57.4774C285.48 56.021 286.47 54.5147 287.344 53.0022C287.513 52.7073 287.891 52.6062 288.186 52.7768C288.481 52.9474 288.582 53.324 288.412 53.6189C287.515 55.1728 286.497 56.7181 285.388 58.2123C285.268 58.3756 285.081 58.4609 284.893 58.4609V58.4621Z" fill="white"/>
<path opacity="0.79" d="M290.1 49.5323C290.019 49.5323 289.934 49.5153 289.855 49.4811C289.543 49.3459 289.399 48.9827 289.536 48.6707C296.242 33.2259 290.455 20.2051 290.395 20.0747C290.254 19.7652 290.39 19.3995 290.7 19.2582C291.008 19.1168 291.375 19.2521 291.516 19.5616C291.578 19.6957 297.601 33.193 290.667 49.1618C290.566 49.3934 290.339 49.5323 290.101 49.5323H290.1Z" fill="white"/>
<path d="M285.438 200.31C280.445 188.41 262.36 152.335 230.368 163.476C229.898 163.641 229.951 164.326 230.442 164.417C237.497 165.725 263.636 172.328 284.598 200.781C284.939 201.244 285.661 200.84 285.438 200.31Z" fill="#ADDAFF"/>
<path d="M285.166 201.053C277.974 194.273 256.558 168.044 228.117 180.031C227.805 180.163 227.867 180.626 228.205 180.661C235.234 181.405 270.132 185.825 285.029 201.628C285.424 202.047 285.585 201.448 285.166 201.053Z" fill="#ADDAFF"/>
<path d="M284.489 198.075C283.805 189.107 279.798 155.245 257.993 148.26C257.833 148.209 257.698 148.391 257.794 148.527C260.421 152.233 279.537 179.613 284.149 198.13C284.2 198.336 284.506 198.289 284.489 198.077V198.075Z" fill="#ADDAFF"/>
<path d="M286.66 208.353C286.851 208.456 287.039 208.209 286.884 208.055C283.032 204.218 267.083 190.115 246.835 197.059C223.895 204.926 264.061 196.09 286.66 208.353Z" fill="#ADDAFF"/>
<path d="M286.133 201.325C286.086 201.996 285.133 202.076 284.984 201.42C282.565 190.783 277.438 161.451 292.359 153.99C310.019 145.159 288.531 166.543 286.132 201.325H286.133Z" fill="#ADDAFF"/>
<path d="M285.099 201.252C287.606 194.719 297.268 174.439 317.378 185.397C317.717 185.582 317.607 186.098 317.221 186.122C312.696 186.406 297.653 188.359 285.747 201.638C285.461 201.956 284.945 201.651 285.098 201.252H285.099Z" fill="#ADDAFF"/>
<path d="M285.644 202.891C286.569 198.857 291.379 190.768 315.857 198.177C316.003 198.221 315.965 198.441 315.813 198.425C311.003 197.926 294.75 196.822 286.783 203.585C286.271 204.021 285.494 203.544 285.644 202.89V202.891Z" fill="#ADDAFF"/>
<path d="M292.691 313.287L292.699 312.461V311.574L292.686 309.797L292.663 306.241L292.559 299.13C292.496 294.389 292.402 289.649 292.302 284.911C292.086 275.434 291.815 265.962 291.382 256.499C290.958 247.037 290.373 237.583 289.463 228.166C288.996 223.459 288.433 218.762 287.675 214.101C286.93 209.439 285.971 204.8 284.414 200.346L284.837 200.173C285.764 202.372 286.576 204.627 287.188 206.931L287.665 208.656C287.815 209.232 287.944 209.813 288.085 210.394L288.499 212.134L288.866 213.883C289.811 218.553 290.542 223.261 291.115 227.983C291.703 232.705 292.138 237.441 292.525 242.179C292.887 246.918 293.159 251.663 293.395 256.407C293.601 261.154 293.755 265.901 293.866 270.649C293.94 275.397 294.013 280.146 293.987 284.895C293.983 289.643 293.911 294.391 293.791 299.137L293.539 306.255L293.383 309.814L293.277 311.593L293.217 312.484C293.192 312.784 293.184 313.061 293.126 313.434L292.693 313.29L292.691 313.287Z" fill="#ADDAFF"/>
<path d="M300.962 229.45C304.306 221.478 316.421 197.312 337.853 204.776C338.168 204.885 338.132 205.345 337.803 205.406C333.077 206.282 315.567 210.705 301.524 229.765C301.295 230.076 300.812 229.804 300.962 229.448V229.45Z" fill="#ADDAFF"/>
<path d="M301.141 229.948C305.959 225.406 320.304 207.836 339.357 215.866C339.567 215.954 339.524 216.264 339.299 216.288C334.59 216.785 311.212 219.746 301.233 230.333C300.969 230.614 300.861 230.213 301.142 229.948H301.141Z" fill="#ADDAFF"/>
<path d="M301.598 227.954C302.056 221.946 304.74 199.262 319.348 194.584C319.454 194.549 319.546 194.671 319.481 194.763C317.721 197.245 304.915 215.587 301.826 227.991C301.792 228.13 301.587 228.097 301.598 227.954Z" fill="#ADDAFF"/>
<path d="M300.145 234.839C300.017 234.908 299.892 234.743 299.995 234.639C302.576 232.069 313.26 222.621 326.824 227.273C342.191 232.543 315.284 226.625 300.145 234.839Z" fill="#ADDAFF"/>
<path d="M300.498 230.132C300.529 230.582 301.167 230.635 301.267 230.196C302.888 223.07 306.322 203.421 296.327 198.423C284.497 192.507 298.891 206.832 300.498 230.132Z" fill="#ADDAFF"/>
<path d="M301.188 230.082C299.509 225.707 293.036 212.121 279.565 219.461C279.339 219.586 279.412 219.931 279.67 219.948C282.701 220.138 292.777 221.447 300.754 230.341C300.946 230.554 301.292 230.349 301.188 230.082Z" fill="#ADDAFF"/>
<path d="M300.825 231.181C300.206 228.479 296.983 223.059 280.585 228.023C280.487 228.052 280.513 228.201 280.614 228.19C283.836 227.855 294.725 227.115 300.061 231.647C300.403 231.939 300.925 231.619 300.824 231.181H300.825Z" fill="#ADDAFF"/>
<path d="M297.668 313.43C297.621 313.13 297.618 312.929 297.599 312.704L297.556 312.037L297.481 310.706C297.431 309.819 297.399 308.932 297.365 308.045L297.188 302.721C297.071 299.173 297.063 295.621 297.039 292.071C297.032 288.521 297.026 284.968 297.094 281.417C297.169 277.866 297.254 274.314 297.407 270.764C297.566 267.214 297.755 263.664 298.005 260.118C298.278 256.572 298.593 253.027 299.032 249.493L299.373 246.843L299.776 244.201C300.062 242.441 300.361 240.684 300.744 238.94C300.918 238.065 301.116 237.195 301.337 236.328C301.448 235.895 301.549 235.462 301.668 235.03L302.041 233.742C302.523 232.022 303.14 230.332 303.865 228.698L304.288 228.871C303.749 230.549 303.262 232.237 302.907 233.965L302.633 235.257C302.548 235.688 302.478 236.125 302.401 236.558L302.165 237.859L301.959 239.165C301.822 240.037 301.686 240.907 301.578 241.783C301.463 242.658 301.325 243.528 301.233 244.408C301.022 246.161 300.837 247.918 300.653 249.674C299.976 256.71 299.485 263.771 299.137 270.845C298.792 277.918 298.557 285 298.374 292.086C298.28 295.628 298.254 299.173 298.179 302.718L298.114 308.035L298.098 310.693L298.092 312.021L298.1 313.286L297.667 313.43H297.668Z" fill="#ADDAFF"/>
<path d="M277.183 244.194C272.911 237.219 258.291 216.394 241.611 226.933C241.365 227.088 241.48 227.516 241.768 227.519C245.908 227.574 261.459 228.892 276.767 244.584C277.017 244.84 277.374 244.505 277.183 244.194Z" fill="#ADDAFF"/>
<path d="M277.123 244.695C272.236 241.196 256.944 226.959 242.371 237.643C242.211 237.76 242.303 238.047 242.498 238.032C246.553 237.733 266.778 236.713 277.117 245.074C277.391 245.296 277.408 244.9 277.123 244.695Z" fill="#ADDAFF"/>
<path d="M276.372 242.886C274.889 237.293 268.481 216.328 255.326 214.297C255.23 214.282 255.177 214.411 255.247 214.487C257.182 216.541 271.318 231.758 276.186 242.958C276.241 243.084 276.407 243.019 276.372 242.886Z" fill="#ADDAFF"/>
<path d="M278.856 249.145C278.977 249.19 279.053 249.012 278.947 248.932C276.304 246.927 265.581 239.756 255.011 246.359C243.036 253.839 264.609 243.864 278.856 249.145Z" fill="#ADDAFF"/>
<path d="M277.696 244.762C277.753 245.191 277.225 245.346 277.06 244.947C274.394 238.488 267.91 220.509 275.412 214.162C284.292 206.65 274.79 222.515 277.696 244.762Z" fill="#ADDAFF"/>
<path d="M277.106 244.826C277.72 240.424 280.686 226.549 293.37 231.277C293.585 231.356 293.585 231.695 293.37 231.752C290.853 232.426 282.608 235.304 277.518 244.999C277.396 245.232 277.067 245.096 277.105 244.826H277.106Z" fill="#ADDAFF"/>
<path d="M277.613 245.804C277.641 243.153 279.363 237.514 294.078 239.522C294.166 239.535 294.172 239.678 294.083 239.684C291.308 239.894 282.006 240.973 278.341 246.119C278.106 246.45 277.608 246.234 277.613 245.804Z" fill="#ADDAFF"/>
<path d="M295.009 314.81L294.594 312.622L294.152 310.38L293.242 305.899L291.366 296.95C290.726 293.97 290.067 290.995 289.388 288.025C288.726 285.051 288.043 282.082 287.335 279.12C285.913 273.197 284.361 267.309 282.681 261.465L282.041 259.278L281.376 257.099C280.931 255.647 280.478 254.197 279.976 252.765C278.968 249.906 277.923 247.052 276.52 244.37L276.911 244.135C277.742 245.431 278.489 246.784 279.141 248.173C279.476 248.865 279.809 249.559 280.097 250.269C280.401 250.975 280.693 251.684 280.966 252.399C282.091 255.252 283.09 258.151 283.985 261.077C285.781 266.928 287.246 272.865 288.637 278.813C289.326 281.789 289.989 284.768 290.631 287.754C291.246 290.745 291.841 293.74 292.415 296.738C292.988 299.736 293.552 302.736 294.053 305.746L294.801 310.264L295.153 312.527L295.318 313.661L295.397 314.23C295.42 314.424 295.452 314.592 295.465 314.856L295.011 314.811L295.009 314.81Z" fill="#ADDAFF"/>
<path d="M284.414 285.151H303.898C305.175 285.151 306.12 287.075 305.833 289.092C304.587 297.843 303.093 306.72 300.035 315.731C299.471 317.396 298.395 318.439 297.223 318.439H290.865C289.711 318.439 288.651 317.412 288.104 315.764C285.654 308.391 283.299 299.601 282.135 289.626C281.865 287.304 282.955 285.151 284.414 285.151Z" fill="#018CFF"/>
<defs>
<linearGradient id="paint0_linear_72_14431" x1="291.821" y1="406.127" x2="109.35" y2="457.4" gradientUnits="userSpaceOnUse">
<stop stop-color="#CB236D"/>
<stop offset="1" stop-color="#4C246D"/>
</linearGradient>
<linearGradient id="paint1_linear_72_14431" x1="170.319" y1="251.916" x2="219.95" y2="251.916" gradientUnits="userSpaceOnUse">
<stop stop-color="#FEBBBA"/>
<stop offset="1" stop-color="#FF928E"/>
</linearGradient>
<linearGradient id="paint2_linear_72_14431" x1="116.837" y1="200.925" x2="174.524" y2="167.51" gradientUnits="userSpaceOnUse">
<stop stop-color="#FEBBBA"/>
<stop offset="1" stop-color="#FF928E"/>
</linearGradient>
<linearGradient id="paint3_linear_72_14431" x1="167.592" y1="131.401" x2="167.241" y2="229.107" gradientUnits="userSpaceOnUse">
<stop stop-color="#FEBBBA"/>
<stop offset="1" stop-color="#FF928E"/>
</linearGradient>
<linearGradient id="paint4_linear_72_14431" x1="135.617" y1="232.563" x2="144.321" y2="165.419" gradientUnits="userSpaceOnUse">
<stop stop-color="#FEBBBA"/>
<stop offset="1" stop-color="#FF928E"/>
</linearGradient>
<linearGradient id="paint5_linear_72_14431" x1="83.7361" y1="-58.8286" x2="73.8745" y2="181.116" gradientUnits="userSpaceOnUse">
<stop stop-color="#09005D"/>
<stop offset="1" stop-color="#1A0F91"/>
</linearGradient>
<linearGradient id="paint6_linear_72_14431" x1="121.021" y1="326.976" x2="123.284" y2="295.492" gradientUnits="userSpaceOnUse">
<stop stop-color="#FEBBBA"/>
<stop offset="1" stop-color="#FF928E"/>
</linearGradient>
<linearGradient id="paint7_linear_72_14431" x1="157.117" y1="439.586" x2="256.488" y2="439.586" gradientUnits="userSpaceOnUse">
<stop stop-color="#9CFFFB"/>
<stop offset="1" stop-color="#9BFFFA"/>
</linearGradient>
<linearGradient id="paint8_linear_72_14431" x1="168.592" y1="439.586" x2="267.965" y2="439.586" gradientUnits="userSpaceOnUse">
<stop stop-color="#9CFFFB"/>
<stop offset="1" stop-color="#9BFFFA"/>
</linearGradient>
<linearGradient id="paint9_linear_72_14431" x1="248.954" y1="131.727" x2="320.45" y2="-31.7932" gradientUnits="userSpaceOnUse">
<stop stop-color="#4F52FF"/>
<stop offset="1" stop-color="#4042E2"/>
</linearGradient>
<linearGradient id="paint10_linear_72_14431" x1="248.024" y1="131.318" x2="319.52" y2="-32.2005" gradientUnits="userSpaceOnUse">
<stop stop-color="#4F52FF"/>
<stop offset="1" stop-color="#4042E2"/>
</linearGradient>
<linearGradient id="paint11_linear_72_14431" x1="246.578" y1="130.687" x2="318.074" y2="-32.8316" gradientUnits="userSpaceOnUse">
<stop stop-color="#4F52FF"/>
<stop offset="1" stop-color="#4042E2"/>
</linearGradient>
<linearGradient id="paint12_linear_72_14431" x1="245.882" y1="130.383" x2="317.377" y2="-33.1361" gradientUnits="userSpaceOnUse">
<stop stop-color="#4F52FF"/>
<stop offset="1" stop-color="#4042E2"/>
</linearGradient>
<linearGradient id="paint13_linear_72_14431" x1="263.65" y1="22.3366" x2="259.336" y2="110.462" gradientUnits="userSpaceOnUse">
<stop stop-color="#FF928E"/>
<stop offset="1" stop-color="#FE7062"/>
</linearGradient>
<linearGradient id="paint14_linear_72_14431" x1="345.895" y1="-2.02257" x2="241.749" y2="89.1742" gradientUnits="userSpaceOnUse">
<stop stop-color="#E1473D"/>
<stop offset="1" stop-color="#E9605A"/>
</linearGradient>
<linearGradient id="paint15_linear_72_14431" x1="340.023" y1="-8.73328" x2="235.875" y2="82.4635" gradientUnits="userSpaceOnUse">
<stop stop-color="#E1473D"/>
<stop offset="1" stop-color="#E9605A"/>
</linearGradient>
</defs>
</svg>
